REM DIRINDEX 1\2,1\3
REM DIRNAME cjc140,folder01,folder02
TITLE ""
FILE "Track92.mp3" MP3
  TRACK 01 AUDIO
    TITLE "0:"
    INDEX 01 00:00:00
  TRACK 02 AUDIO
    TITLE "3:cjc140_325"
    INDEX 01 00:00:07
  TRACK 03 AUDIO
    TITLE "2:cjc140_326"
    INDEX 01 00:01:73
  TRACK 04 AUDIO
    TITLE "2:cjc140_327"
    INDEX 01 00:08:19
  TRACK 05 AUDIO
    TITLE "2:cjc140_328"
    INDEX 01 00:13:63
  TRACK 06 AUDIO
    TITLE "0:"
    INDEX 01 00:20:55
